{"accessors" : [{"bufferView" : 0, "byteOffset" : 0, "componentType" : 5123, "count" : 8424, "type" : "SCALAR", "max" : [1533], "min" : [0]}, {"bufferView" : 1, "byteOffset" : 0, "componentType" : 5126, "count" : 1534, "type" : "VEC3", "max" : [-7.229712963104248, 13.605842590332031, 4.960410118103027], "min" : [-17.13374900817871, 3.7185630798339844, -4.960410118103027], "name" : "POSITION"}, {"bufferView" : 1, "byteOffset" : 12, "componentType" : 5126, "count" : 1534, "type" : "VEC3", "max" : [0.9983125925064087, 0.9966235756874084, 1.0000044107437134], "min" : [-0.9983125925064087, -0.9966235756874084, -1.0000044107437134], "name" : "NORMAL"}, {"bufferView" : 1, "byteOffset" : 24, "componentType" : 5126, "count" : 1534, "type" : "VEC2", "max" : [7.7917938232421875, 16.583587646484375], "min" : [-7.7917938232421875, -14.583587646484375], "name" : "TEXCOORD_0"}, {"bufferView" : 0, "byteOffset" : 16848, "componentType" : 5123, "count" : 36, "type" : "SCALAR", "max" : [23], "min" : [0]}, {"bufferView" : 2, "byteOffset" : 0, "componentType" : 5126, "count" : 24, "type" : "VEC3", "max" : [11.756122589111328, 10.532157897949219, 12.960000038146973], "min" : [2.692953109741211, 3.0393402576446533, 0], "name" : "POSITION"}, {"bufferView" : 2, "byteOffset" : 12, "componentType" : 5126, "count" : 24, "type" : "VEC3", "max" : [1.0000044107437134, 1.0000044107437134, 1.0000044107437134], "min" : [-1.0000044107437134, -1.0000044107437134, -1.0000044107437134], "name" : "NORMAL"}, {"bufferView" : 2, "byteOffset" : 24, "componentType" : 5126, "count" : 24, "type" : "VEC2", "max" : [9.063169479370117, 4.746408939361572], "min" : [-4.531584739685059, -11.960000038146973], "name" : "TEXCOORD_0"}, {"bufferView" : 0, "byteOffset" : 16920, "componentType" : 5123, "count" : 306, "type" : "SCALAR", "max" : [156], "min" : [0]}, {"bufferView" : 3, "byteOffset" : 0, "componentType" : 5126, "count" : 157, "type" : "VEC3", "max" : [1.0706952810287476, 4.256535530090332, 4.375332355499268], "min" : [-7.679969310760498, -6.951508045196533, -4.375332355499268], "name" : "POSITION"}, {"bufferView" : 3, "byteOffset" : 12, "componentType" : 5126, "count" : 157, "type" : "VEC3", "max" : [0.9315405488014221, 0.36364954710006714, 0.9315405488014221], "min" : [-0.9315405488014221, -1.0000044107437134, -0.9315405488014221], "name" : "NORMAL"}, {"bufferView" : 3, "byteOffset" : 24, "componentType" : 5126, "count" : 157, "type" : "VEC2", "max" : [4.375332355499268, 7.872756004333496], "min" : [-12.031781196594238, -7.750664710998535], "name" : "TEXCOORD_0"}], "asset" : {"generator" : "Aspose.3D 25.11.0", "version" : "2.0"}, "buffers" : [{"uri" : "data:application/octet-stream;base64,", "byteLength" : 72428}], "bufferViews" : [{"buffer" : 0, "byteOffset" : 0, "byteLength" : 17532, "target" : 34963}, {"buffer" : 0, "byteOffset" : 17536, "byteLength" : 49088, "byteStride" : 32, "target" : 34962}, {"buffer" : 0, "byteOffset" : 66628, "byteLength" : 768, "byteStride" : 32, "target" : 34962}, {"buffer" : 0, "byteOffset" : 67400, "byteLength" : 5024, "byteStride" : 32, "target" : 34962}], "meshes" : [{"primitives" : [{"attributes" : {"POSITION" : 1, "NORMAL" : 2, "TEXCOORD_0" : 3}, "indices" : 0, "mode" : 4}], "name" : "?????????1"}, {"primitives" : [{"attributes" : {"POSITION" : 5, "NORMAL" : 6, "TEXCOORD_0" : 7}, "indices" : 4, "mode" : 4}], "name" : "?????????1"}, {"primitives" : [{"attributes" : {"POSITION" : 9, "NORMAL" : 10, "TEXCOORD_0" : 11}, "indices" : 8, "mode" : 4}], "name" : "?????????1"}], "nodes" : [{"matrix" : [10, 0, 0, 0, 0, 10, 0, 0, 0, 0, 10, 0, 0, 0, 0, 1], "mesh" : 0, "name" : "?????????1"}, {"children" : [0], "name" : "MeshPrimDef"}, {"matrix" : [10, 0, 0, 0, 0, 10, 0, 0, 0, 0, 10, 0, 0, 0, 0, 1], "mesh" : 1, "name" : "?????????1"}, {"children" : [2], "name" : "MeshPrimDef_1"}, {"matrix" : [10, 0, 0, 0, 0, 10, 0, 0, 0, 0, 10, 0, 0, 0, 0, 1], "mesh" : 2, "name" : "?????????1"}, {"children" : [4], "name" : "MeshPrimDef_2"}], "scene" : 0, "scenes" : [{"nodes" : [1, 3, 5]}]}