{
	"asset":{
		"generator":"Khronos glTF Blender I/O v5.2.39",
		"version":"2.0"
	},
	"extensionsUsed":[
		"KHR_materials_clearcoat"
	],
	"scene":0,
	"scenes":[
		{
			"name":"Scene",
			"nodes":[
				4
			]
		}
	],
	"nodes":[
		{
			"mesh":0,
			"name":"\u30dc\u30c7\u30a31",
			"scale":[
				10,
				10,
				10
			]
		},
		{
			"mesh":1,
			"name":"\u30dc\u30c7\u30a32",
			"scale":[
				10,
				10,
				10
			]
		},
		{
			"mesh":2,
			"name":"\u30dc\u30c7\u30a33",
			"scale":[
				10,
				10,
				10
			]
		},
		{
			"mesh":3,
			"name":"\u30dc\u30c7\u30a34",
			"scale":[
				10,
				10,
				10
			]
		},
		{
			"children":[
				0,
				1,
				2,
				3
			],
			"name":"block",
			"scale":[
				0.0010000000474974513,
				0.0010000000474974513,
				0.0010000000474974513
			]
		}
	],
	"materials":[
		{
			"doubleSided":true,
			"extensions":{
				"KHR_materials_clearcoat":{
					"clearcoatRoughnessFactor":0.009999999776482582
				}
			},
			"name":"XID_SteelSatin_EC7A873A024F4D028DB6FC2577E6ED5A",
			"pbrMetallicRoughness":{
				"baseColorFactor":[
					0.6262099742889404,
					0.6262099742889404,
					0.6262099742889404,
					1
				],
				"roughnessFactor":0.2645750045776367
			}
		},
		{
			"doubleSided":true,
			"extensions":{
				"KHR_materials_clearcoat":{
					"clearcoatRoughnessFactor":0.009999999776482582
				}
			},
			"name":"XID_PolymideKapton_540F7EF4805044E7AEF37467E69EE33F",
			"pbrMetallicRoughness":{
				"baseColorFactor":[
					0.784313976764679,
					0.556863009929657,
					0.02745099924504757,
					1
				],
				"metallicFactor":0,
				"roughnessFactor":0.2645750045776367
			}
		}
	],
	"meshes":[
		{
			"name":"\u30dc\u30c7\u30a31",
			"primitives":[
				{
					"attributes":{
						"POSITION":0,
						"NORMAL":1,
						"TEXCOORD_0":2
					},
					"indices":3,
					"material":0
				}
			]
		},
		{
			"name":"\u30dc\u30c7\u30a32",
			"primitives":[
				{
					"attributes":{
						"POSITION":4,
						"NORMAL":5,
						"TEXCOORD_0":6
					},
					"indices":7,
					"material":0
				}
			]
		},
		{
			"name":"\u30dc\u30c7\u30a33",
			"primitives":[
				{
					"attributes":{
						"POSITION":8,
						"NORMAL":9,
						"TEXCOORD_0":10
					},
					"indices":11,
					"material":0
				}
			]
		},
		{
			"name":"\u30dc\u30c7\u30a34",
			"primitives":[
				{
					"attributes":{
						"POSITION":12,
						"NORMAL":13,
						"TEXCOORD_0":14
					},
					"indices":15,
					"material":1
				},
				{
					"attributes":{
						"POSITION":16,
						"NORMAL":17,
						"TEXCOORD_0":18
					},
					"indices":19,
					"material":0
				}
			]
		}
	],
	"accessors":[
		{
			"bufferView":0,
			"componentType":5126,
			"count":170,
			"max":[
				1.062396764755249,
				7.475368022918701,
				15.528361320495605
			],
			"min":[
				-7.679969310760498,
				-4.374923229217529,
				6.953542232513428
			],
			"type":"VEC3"
		},
		{
			"bufferView":1,
			"componentType":5126,
			"count":170,
			"type":"VEC3"
		},
		{
			"bufferView":2,
			"componentType":5126,
			"count":170,
			"type":"VEC2"
		},
		{
			"bufferView":3,
			"componentType":5123,
			"count":300,
			"type":"SCALAR"
		},
		{
			"bufferView":4,
			"componentType":5126,
			"count":1534,
			"max":[
				-7.229712963104248,
				4.960410118103027,
				-3.7185630798339844
			],
			"min":[
				-17.13374900817871,
				-4.960410118103027,
				-13.605842590332031
			],
			"type":"VEC3"
		},
		{
			"bufferView":5,
			"componentType":5126,
			"count":1534,
			"type":"VEC3"
		},
		{
			"bufferView":6,
			"componentType":5126,
			"count":1534,
			"type":"VEC2"
		},
		{
			"bufferView":7,
			"componentType":5123,
			"count":8424,
			"type":"SCALAR"
		},
		{
			"bufferView":8,
			"componentType":5126,
			"count":24,
			"max":[
				11.756122589111328,
				12.960000038146973,
				-3.0393402576446533
			],
			"min":[
				2.692953109741211,
				0,
				-10.532157897949219
			],
			"type":"VEC3"
		},
		{
			"bufferView":9,
			"componentType":5126,
			"count":24,
			"type":"VEC3"
		},
		{
			"bufferView":10,
			"componentType":5126,
			"count":24,
			"type":"VEC2"
		},
		{
			"bufferView":11,
			"componentType":5123,
			"count":36,
			"type":"SCALAR"
		},
		{
			"bufferView":12,
			"componentType":5126,
			"count":4,
			"max":[
				22.922805786132812,
				9.490400314331055,
				9.719958305358887
			],
			"min":[
				13.292006492614746,
				0,
				9.719958305358887
			],
			"type":"VEC3"
		},
		{
			"bufferView":13,
			"componentType":5126,
			"count":4,
			"type":"VEC3"
		},
		{
			"bufferView":14,
			"componentType":5126,
			"count":4,
			"type":"VEC2"
		},
		{
			"bufferView":15,
			"componentType":5123,
			"count":6,
			"type":"SCALAR"
		},
		{
			"bufferView":16,
			"componentType":5126,
			"count":20,
			"max":[
				22.922805786132812,
				9.490400314331055,
				9.719958305358887
			],
			"min":[
				13.292006492614746,
				0,
				5.859158039093018
			],
			"type":"VEC3"
		},
		{
			"bufferView":17,
			"componentType":5126,
			"count":20,
			"type":"VEC3"
		},
		{
			"bufferView":18,
			"componentType":5126,
			"count":20,
			"type":"VEC2"
		},
		{
			"bufferView":19,
			"componentType":5123,
			"count":30,
			"type":"SCALAR"
		}
	],
	"bufferViews":[
		{
			"buffer":0,
			"byteLength":2040,
			"byteOffset":0,
			"target":34962
		},
		{
			"buffer":0,
			"byteLength":2040,
			"byteOffset":2040,
			"target":34962
		},
		{
			"buffer":0,
			"byteLength":1360,
			"byteOffset":4080,
			"target":34962
		},
		{
			"buffer":0,
			"byteLength":600,
			"byteOffset":5440,
			"target":34963
		},
		{
			"buffer":0,
			"byteLength":18408,
			"byteOffset":6040,
			"target":34962
		},
		{
			"buffer":0,
			"byteLength":18408,
			"byteOffset":24448,
			"target":34962
		},
		{
			"buffer":0,
			"byteLength":12272,
			"byteOffset":42856,
			"target":34962
		},
		{
			"buffer":0,
			"byteLength":16848,
			"byteOffset":55128,
			"target":34963
		},
		{
			"buffer":0,
			"byteLength":288,
			"byteOffset":71976,
			"target":34962
		},
		{
			"buffer":0,
			"byteLength":288,
			"byteOffset":72264,
			"target":34962
		},
		{
			"buffer":0,
			"byteLength":192,
			"byteOffset":72552,
			"target":34962
		},
		{
			"buffer":0,
			"byteLength":72,
			"byteOffset":72744,
			"target":34963
		},
		{
			"buffer":0,
			"byteLength":48,
			"byteOffset":72816,
			"target":34962
		},
		{
			"buffer":0,
			"byteLength":48,
			"byteOffset":72864,
			"target":34962
		},
		{
			"buffer":0,
			"byteLength":32,
			"byteOffset":72912,
			"target":34962
		},
		{
			"buffer":0,
			"byteLength":12,
			"byteOffset":72944,
			"target":34963
		},
		{
			"buffer":0,
			"byteLength":240,
			"byteOffset":72956,
			"target":34962
		},
		{
			"buffer":0,
			"byteLength":240,
			"byteOffset":73196,
			"target":34962
		},
		{
			"buffer":0,
			"byteLength":160,
			"byteOffset":73436,
			"target":34962
		},
		{
			"buffer":0,
			"byteLength":60,
			"byteOffset":73596,
			"target":34963
		}
	],
	"buffers":[
		{
			"byteLength":73656,
			"uri":"block.bin"
		}
	]
}
