{"accessors" : [{"bufferView" : 0, "byteOffset" : 0, "componentType" : 5123, "count" : 36, "type" : "SCALAR", "max" : [23], "min" : [0]}, {"bufferView" : 1, "byteOffset" : 0, "componentType" : 5126, "count" : 24, "type" : "VEC3", "max" : [11.756122589111328, 10.532157897949219, 12.960000038146973], "min" : [2.692953109741211, 3.0393402576446533, 0], "name" : "POSITION"}, {"bufferView" : 1, "byteOffset" : 12, "componentType" : 5126, "count" : 24, "type" : "VEC3", "max" : [1.0000044107437134, 1.0000044107437134, 1.0000044107437134], "min" : [-1.0000044107437134, -1.0000044107437134, -1.0000044107437134], "name" : "NORMAL"}, {"bufferView" : 1, "byteOffset" : 24, "componentType" : 5126, "count" : 24, "type" : "VEC2", "max" : [9.063169479370117, 4.746408939361572], "min" : [-4.531584739685059, -11.960000038146973], "name" : "TEXCOORD_0"}, {"bufferView" : 0, "byteOffset" : 72, "componentType" : 5123, "count" : 8424, "type" : "SCALAR", "max" : [1533], "min" : [0]}, {"bufferView" : 2, "byteOffset" : 0, "componentType" : 5126, "count" : 1534, "type" : "VEC3", "max" : [-7.229712963104248, 13.605842590332031, 4.960410118103027], "min" : [-17.13374900817871, 3.7185630798339844, -4.960410118103027], "name" : "POSITION"}, {"bufferView" : 2, "byteOffset" : 12, "componentType" : 5126, "count" : 1534, "type" : "VEC3", "max" : [0.9983125925064087, 0.9966235756874084, 1.0000044107437134], "min" : [-0.9983125925064087, -0.9966235756874084, -1.0000044107437134], "name" : "NORMAL"}, {"bufferView" : 2, "byteOffset" : 24, "componentType" : 5126, "count" : 1534, "type" : "VEC2", "max" : [7.7917938232421875, 16.583587646484375], "min" : [-7.7917938232421875, -14.583587646484375], "name" : "TEXCOORD_0"}, {"bufferView" : 0, "byteOffset" : 16920, "componentType" : 5123, "count" : 300, "type" : "SCALAR", "max" : [153], "min" : [0]}, {"bufferView" : 3, "byteOffset" : 0, "componentType" : 5126, "count" : 154, "type" : "VEC3", "max" : [1.062396764755249, -6.953542232513428, 7.475368022918701], "min" : [-7.679969310760498, -15.528361320495605, -4.374923229217529], "name" : "POSITION"}, {"bufferView" : 3, "byteOffset" : 12, "componentType" : 5126, "count" : 154, "type" : "VEC3", "max" : [0.9315405488014221, 0.9845209717750549, 0.5400933623313904], "min" : [-0.9315405488014221, -0.8411213159561157, -0.9803742170333862], "name" : "NORMAL"}, {"bufferView" : 3, "byteOffset" : 24, "componentType" : 5126, "count" : 154, "type" : "VEC2", "max" : [4.373257160186768, 8.007515907287598], "min" : [-12.031781196594238, -7.742365837097168], "name" : "TEXCOORD_0"}], "asset" : {"generator" : "Aspose.3D 25.11.0", "version" : "2.0"}, "buffers" : [{"uri" : "data:application/octet-stream;base64,", "byteLength" : 72320}], "bufferViews" : [{"buffer" : 0, "byteOffset" : 0, "byteLength" : 17520, "target" : 34963}, {"buffer" : 0, "byteOffset" : 17524, "byteLength" : 768, "byteStride" : 32, "target" : 34962}, {"buffer" : 0, "byteOffset" : 18296, "byteLength" : 49088, "byteStride" : 32, "target" : 34962}, {"buffer" : 0, "byteOffset" : 67388, "byteLength" : 4928, "byteStride" : 32, "target" : 34962}], "materials" : [{"name" : "XID_SteelSatin_EC7A873A024F4D028DB6FC2577E6ED5A", "pbrMetallicRoughness" : {"baseColorFactor" : [0.6262099742889404, 0.6262099742889404, 0.6262099742889404, 1], "metallicFactor" : 1, "roughnessFactor" : 0.2645750045776367}, "emissiveFactor" : [0, 0, 0], "alphaMode" : "OPAQUE", "doubleSided" : false}], "meshes" : [{"primitives" : [{"attributes" : {"POSITION" : 1, "NORMAL" : 2, "TEXCOORD_0" : 3}, "indices" : 0, "material" : 0, "mode" : 4}], "name" : "?????????3"}, {"primitives" : [{"attributes" : {"POSITION" : 5, "NORMAL" : 6, "TEXCOORD_0" : 7}, "indices" : 4, "material" : 0, "mode" : 4}], "name" : "?????????2"}, {"primitives" : [{"attributes" : {"POSITION" : 9, "NORMAL" : 10, "TEXCOORD_0" : 11}, "indices" : 8, "material" : 0, "mode" : 4}], "name" : "?????????1"}], "nodes" : [{"matrix" : [10, 0, 0, 0, 0, 10, 0, 0, 0, 0, 10, 0, 0, 0, 0, 1], "mesh" : 0, "name" : "?????????3"}, {"matrix" : [10, 0, 0, 0, 0, 10, 0, 0, 0, 0, 10, 0, 0, 0, 0, 1], "mesh" : 1, "name" : "?????????2"}, {"matrix" : [10, 0, 0, 0, 0, 10, 0, 0, 0, 0, 10, 0, 0, 0, 0, 1], "mesh" : 2, "name" : "?????????1"}, {"children" : [0, 1, 2], "name" : "block"}], "scene" : 0, "scenes" : [{"nodes" : [3]}]}